<?xml version="1.0" encoding="iso-8859-1"?>
<!-- Generator: Adobe Illustrator 18.0.0, SVG Export Plug-In . SVG Version: 6.00 Build 0)  -->
<!DOCTYPE svg PUBLIC "-//W3C//DTD SVG 1.1//EN" "http://www.w3.org/Graphics/SVG/1.1/DTD/svg11.dtd">
<svg xmlns="http://www.w3.org/2000/svg" xmlns:xlink="http://www.w3.org/1999/xlink" version="1.1" id="Capa_1" x="0px" y="0px" viewBox="0 0 59.771 59.771" style="enable-background:new 0 0 59.771 59.771;" xml:space="preserve" width="32px" height="32px">
<g>
	<path d="M37.65,53.816l-3.222-0.646h2.037c0.116,0,0.232-0.01,0.348-0.021c0.049-0.005,0.098-0.012,0.143-0.012   c0.34,0.047,0.688,0.071,1.034,0.071c0.001,0,0.001,0,0.002,0c4.1,0,8.103-3.32,10.199-8.458c2.441-5.983,2.316-15.05-5.333-22.531   c-5.328-5.553-6.484-9.742-8.788-18.088l-0.929-3.339c-0.18-0.648-0.901-0.975-1.508-0.686l-2.319,1.108l0.158,0.767   c0.039,0.189,3.817,19.085-3.958,29.783c-3.549,4.883-4.216,10.369-1.831,15.052c1.45,2.846,3.859,4.945,6.549,5.855l-6.167,1.03   c-0.545,0.091-0.913,0.606-0.822,1.151c0.082,0.489,0.505,0.835,0.985,0.835c0.055,0,0.11-0.004,0.166-0.014l3.405-0.569   l-1.632,1.635c-0.391,0.391-0.39,1.024,0.001,1.414c0.195,0.195,0.451,0.292,0.707,0.292c0.256,0,0.513-0.098,0.708-0.293   l2.259-2.263v2.882c0,0.552,0.448,1,1,1s1-0.448,1-1v-2.882l2.259,2.263c0.195,0.196,0.451,0.293,0.708,0.293   c0.256,0,0.511-0.097,0.707-0.292c0.391-0.39,0.392-1.023,0.001-1.414l-1.636-1.639l3.377,0.677c0.066,0.013,0.132,0.02,0.197,0.02   c0.467,0,0.884-0.328,0.979-0.804C38.543,54.451,38.192,53.925,37.65,53.816z" fill="#FFFFFF"/>
	<path d="M47.024,20.012c-0.996-0.736-1.935-1.401-2.824-2.03c-1.684-1.192-3.14-2.229-4.46-3.364   c1.085,2.113,2.475,4.042,4.562,6.216c8.318,8.134,8.427,18.085,5.741,24.671c-1.337,3.279-3.396,5.909-5.804,7.6l0.017,0   c0.001,0,0.001,0,0.002,0c3.275,0,5.985-1.131,8.055-3.36c3.636-3.917,4.007-9.906,4.04-10.89h0.003   C56.587,35.284,56.138,26.297,47.024,20.012z" fill="#FFFFFF"/>
	<path d="M26.135,52.742c-1.72-1.268-3.194-2.978-4.233-5.019c-2.739-5.376-2.012-11.622,1.995-17.135   c4.419-6.079,4.794-15.216,4.414-21.432c-2.093,4.875-3.176,7.347-7.896,10.837c-9.141,6.305-9.589,15.292-9.358,18.863h0.003   c0.032,0.988,0.398,6.96,4.034,10.883c2.071,2.234,4.784,3.367,8.063,3.367l0.233-0.002C24.333,53.088,25.248,52.961,26.135,52.742   z" fill="#FFFFFF"/>
	<path d="M9.23,40.855H9.186l-0.067-1.012c-0.027-0.313-0.042-0.57-0.051-0.76l-0.006-0.098   c-0.254-3.911,0.234-13.752,10.218-20.639c1.152-0.852,2.054-1.63,2.805-2.404c-0.234,0.12-0.465,0.239-0.702,0.36   c-2.195,1.121-4.464,2.28-6.371,3.69C7.564,25.13,3.01,32.514,3.397,38.817c-0.015,0.801,0.034,6.188,3.707,10.145   c2.146,2.311,5.083,3.651,8.731,4.023c-0.789-0.533-1.529-1.155-2.208-1.887C10.591,47.822,9.572,43.435,9.23,40.855z" fill="#FFFFFF"/>
</g>
<g>
</g>
<g>
</g>
<g>
</g>
<g>
</g>
<g>
</g>
<g>
</g>
<g>
</g>
<g>
</g>
<g>
</g>
<g>
</g>
<g>
</g>
<g>
</g>
<g>
</g>
<g>
</g>
<g>
</g>
</svg>
