<?xml version="1.0" encoding="iso-8859-1"?>
<!-- Generator: Adobe Illustrator 17.1.0, SVG Export Plug-In . SVG Version: 6.00 Build 0)  -->
<!DOCTYPE svg PUBLIC "-//W3C//DTD SVG 1.1//EN" "http://www.w3.org/Graphics/SVG/1.1/DTD/svg11.dtd">
<svg xmlns="http://www.w3.org/2000/svg" xmlns:xlink="http://www.w3.org/1999/xlink" version="1.1" id="Capa_1" x="0px" y="0px" viewBox="0 0 187.634 187.634" style="enable-background:new 0 0 187.634 187.634;" xml:space="preserve" width="32px" height="32px">
<path d="M183.637,63.762c2.883-2.904,4.317-6.905,3.937-10.978s-2.533-7.738-5.903-10.056c-4.319-2.971-11.313-6.696-20.096-7.568  c-1.168-0.116-2.327-0.14-3.478-0.122c2.462-4.028,4.552-8.396,5.567-12.729c0.943-4.033-1.561-8.068-5.594-9.012  c-4.034-0.942-8.067,1.56-9.012,5.594c-0.817,3.49-3.028,7.437-5.596,11.121c-0.009-0.041-0.014-0.08-0.023-0.12  c-1.843-8.65-6.437-16.246-9.965-21.095c-2.201-3.025-5.729-4.831-9.491-4.772c-3.729,0.037-7.227,1.882-9.357,4.935  c-2.486,3.561-4.589,7.529-6.251,11.796c-0.156,0.4-0.287,0.796-0.428,1.194c-5.44-4.304-11.396-7.837-17.633-9.637  c-6.282-1.813-12.333-2.732-17.984-2.732c-19.744,0-35.88,10.957-47.959,32.566C8.164,71.142,5.235,88.493,3.297,99.974l-0.03,0.177  c-2.179,12.905-4.4,30.956-2.617,43.663c1.206,8.587,4.733,15.927,7.479,20.572c2.694,4.557,6.527,8.39,11.084,11.084  c4.646,2.747,11.987,6.275,20.573,7.48c3.118,0.438,6.712,0.66,10.683,0.66c9.005,0,20.101-1.103,32.979-3.277l0.178-0.03  c11.48-1.938,28.832-4.866,57.826-21.074c27.921-15.607,37.958-37.793,29.835-65.942c-1.904-6.6-5.749-12.884-10.395-18.576  c2.704-0.389,5.405-0.978,7.968-1.86C174.658,70.855,179.63,67.797,183.637,63.762z M74.906,38.068l4.918-4.918  c2.93-2.929,7.679-2.929,10.606,0c2.93,2.929,2.93,7.678,0.001,10.607l-4.918,4.918c-1.465,1.464-3.385,2.197-5.304,2.197  s-3.839-0.732-5.303-2.196C71.977,45.746,71.977,40.997,74.906,38.068z M34.573,129.124l-4.216,4.215  c-1.464,1.464-3.384,2.196-5.303,2.196c-1.92,0-3.839-0.732-5.304-2.197c-2.929-2.929-2.929-7.678,0.001-10.607l4.216-4.215  c2.929-2.928,7.678-2.928,10.606,0C37.503,121.446,37.503,126.195,34.573,129.124z M44.41,91.885l-4.919,4.918  C38.027,98.268,36.107,99,34.188,99c-1.92,0-3.839-0.732-5.304-2.197c-2.929-2.929-2.929-7.678,0.001-10.607l4.919-4.918  c2.929-2.928,7.678-2.928,10.606,0C47.339,84.208,47.339,88.957,44.41,91.885z M64.084,158.633l-4.216,4.216  c-1.465,1.464-3.385,2.197-5.304,2.197s-3.839-0.732-5.304-2.197c-2.929-2.929-2.929-7.678,0-10.606l4.216-4.216  c2.93-2.929,7.678-2.929,10.607,0C67.012,150.955,67.012,155.704,64.084,158.633z M72.866,120.341l-4.918,4.918  c-1.465,1.464-3.385,2.197-5.304,2.197c-1.919,0-3.839-0.732-5.304-2.197c-2.929-2.929-2.929-7.678,0-10.606l4.918-4.918  c2.93-2.929,7.678-2.929,10.607,0C75.795,112.663,75.795,117.412,72.866,120.341z M81.648,82.049l-4.919,4.918  c-1.464,1.464-3.384,2.196-5.303,2.196c-1.92,0-3.839-0.732-5.304-2.197c-2.929-2.929-2.929-7.678,0.001-10.606l4.919-4.918  c2.929-2.929,7.678-2.928,10.606,0.001C84.578,74.372,84.578,79.12,81.648,82.049z M101.322,148.797l-4.918,4.918  c-1.465,1.464-3.385,2.197-5.304,2.197s-3.839-0.732-5.303-2.196c-2.93-2.929-2.93-7.678-0.001-10.607l4.918-4.918  c2.93-2.929,7.679-2.929,10.606,0C104.251,141.118,104.251,145.867,101.322,148.797z M111.158,111.559l-4.919,4.918  c-1.464,1.464-3.384,2.196-5.303,2.196c-1.92,0-3.839-0.732-5.304-2.197c-2.929-2.929-2.929-7.678,0.001-10.607l4.919-4.918  c2.929-2.928,7.678-2.928,10.606,0C114.088,103.881,114.088,108.63,111.158,111.559z M119.941,73.266l-4.918,4.918  c-1.465,1.464-3.385,2.197-5.304,2.197s-3.839-0.732-5.303-2.196c-2.93-2.929-2.93-7.678-0.001-10.607l4.918-4.918  c2.93-2.929,7.679-2.929,10.606,0C122.87,65.588,122.87,70.337,119.941,73.266z M128.976,44.454  c-2.351-3.198-5.184-6.793-8.403-10.412c0.209-2.356,0.71-5.096,1.779-7.841c0.604-1.548,1.248-2.943,1.884-4.174  c1.809,3.069,3.673,6.952,4.534,10.993C129.774,37.734,129.496,41.686,128.976,44.454z M149.451,102.776l-4.918,4.918  c-1.465,1.464-3.385,2.197-5.304,2.197s-3.839-0.732-5.303-2.196c-2.93-2.929-2.93-7.678-0.001-10.607l4.918-4.918  c2.93-2.929,7.679-2.929,10.606,0C152.38,95.097,152.38,99.846,149.451,102.776z M146.171,60.114  c-1.629-1.355-3.23-2.626-4.765-3.798c4.286-2.84,12.047-6.889,18.688-6.229c4.827,0.479,8.905,2.375,11.777,4.152  c-2.183,1.887-4.831,3.373-7.894,4.428C158.622,60.51,151.594,60.543,146.171,60.114z" fill="#FFFFFF"/>
<g>
</g>
<g>
</g>
<g>
</g>
<g>
</g>
<g>
</g>
<g>
</g>
<g>
</g>
<g>
</g>
<g>
</g>
<g>
</g>
<g>
</g>
<g>
</g>
<g>
</g>
<g>
</g>
<g>
</g>
</svg>
