<?xml version="1.0" encoding="iso-8859-1"?>
<!-- Generator: Adobe Illustrator 18.1.1, SVG Export Plug-In . SVG Version: 6.00 Build 0)  -->
<svg xmlns="http://www.w3.org/2000/svg" xmlns:xlink="http://www.w3.org/1999/xlink" version="1.1" id="Capa_1" x="0px" y="0px" viewBox="0 0 39.319 39.319" style="enable-background:new 0 0 39.319 39.319;" xml:space="preserve" width="32px" height="32px">
<g>
	<g id="b9_watermelon">
		<path d="M32.58,0.001l-1.437,1.438c8.188,8.19,8.192,21.515,0,29.706c-8.189,8.188-21.514,8.188-29.705,0L0,32.582    c4.493,4.489,10.394,6.735,16.29,6.735c5.9,0,11.801-2.246,16.29-6.735C41.565,23.597,41.565,8.984,32.58,0.001z" fill="#FFFFFF"/>
		<path d="M29.988,29.999c7.488-7.486,7.488-19.629,0-27.118L2.87,29.999C10.357,37.489,22.499,37.489,29.988,29.999z M30.236,8.821    c0.76,0,1.377,0.609,1.377,0.609s-0.617,0.609-1.377,0.609c-0.761,0-1.378-0.609-1.378-0.609S29.476,8.821,30.236,8.821z     M25.873,21.158c0,0,0.625,0.602,0.646,1.36c0.021,0.761-0.573,1.393-0.573,1.393s-0.623-0.6-0.646-1.361    C25.28,21.793,25.873,21.158,25.873,21.158z M28.253,16.881c0,0-0.692,0.519-1.447,0.413c-0.753-0.105-1.279-0.794-1.279-0.794    s0.698-0.517,1.448-0.412S28.253,16.881,28.253,16.881z M23.512,24.514c0,0-0.312,0.806-1.004,1.121    c-0.694,0.312-1.507,0.013-1.507,0.013s0.312-0.809,1.004-1.121C22.697,24.212,23.512,24.514,23.512,24.514z M21.038,19.15    c0,0,0.608,0.616,0.608,1.376c0,0.759-0.608,1.376-0.608,1.376s-0.608-0.617-0.608-1.376S21.038,19.15,21.038,19.15z     M21.771,14.611c0,0,0.865-0.066,1.444,0.424c0.579,0.491,0.66,1.356,0.66,1.356s-0.865,0.066-1.447-0.425    C21.851,15.474,21.771,14.611,21.771,14.611z M16.162,19.781c0,0,0.609,0.617,0.609,1.377c0,0.761-0.609,1.378-0.609,1.378    s-0.606-0.617-0.606-1.378C15.556,20.398,16.162,19.781,16.162,19.781z M16.514,25.956c0.621,0.439,0.777,1.29,0.777,1.29    s-0.855,0.144-1.479-0.292c-0.624-0.439-0.773-1.293-0.773-1.293S15.893,25.521,16.514,25.956z M10.646,29.679    c-0.592-0.475-0.688-1.336-0.688-1.336s0.862-0.087,1.454,0.393c0.588,0.479,0.686,1.338,0.686,1.338S11.232,30.16,10.646,29.679z    " fill="#FFFFFF"/>
	</g>
	<g id="Capa_1_245_">
	</g>
</g>
<g>
</g>
<g>
</g>
<g>
</g>
<g>
</g>
<g>
</g>
<g>
</g>
<g>
</g>
<g>
</g>
<g>
</g>
<g>
</g>
<g>
</g>
<g>
</g>
<g>
</g>
<g>
</g>
<g>
</g>
</svg>
